<svg xmlns="http://www.w3.org/2000/svg" viewBox="0 0 256 256" role="img" aria-label="Heart molecule favicon">
  <rect width="256" height="256" fill="#000000" />
  <!-- Heart outline -->
  <path
    d="M128 214s-68-45-68-102c0-24 18-44 42-44 15 0 26 7 26 7s11-7 26-7c24 0 42 20 42 44 0 57-68 102-68 102z"
    fill="none"
    stroke="#ffffff"
    stroke-width="12"
    stroke-linecap="round"
    stroke-linejoin="round"
  />
  <!-- Molecule lines through the center -->
  <g stroke="#ffffff" stroke-width="10" stroke-linecap="round" stroke-linejoin="round" fill="none">
    <path d="M96 104 L128 86 L160 104 L160 148 L128 166 L96 148 Z" />
    <path d="M96 104 L76 140 L96 148" />
    <path d="M160 104 L180 140 L160 148" />
    <path d="M96 148 L110 180 L128 166 L146 180 L160 148" />
  </g>
  <!-- Atom nodes -->
  <g fill="#000000" stroke="#ffffff" stroke-width="10">
    <circle cx="96" cy="104" r="11" />
    <circle cx="128" cy="86" r="11" />
    <circle cx="160" cy="104" r="11" />
    <circle cx="76" cy="140" r="11" />
    <circle cx="96" cy="148" r="11" />
    <circle cx="128" cy="166" r="11" />
    <circle cx="160" cy="148" r="11" />
    <circle cx="180" cy="140" r="11" />
    <circle cx="110" cy="180" r="11" />
    <circle cx="146" cy="180" r="11" />
  </g>
</svg>
